<?xml version="1.0" encoding="UTF-8"?>
<svg xmlns="http://www.w3.org/2000/svg" xmlns:xlink="http://www.w3.org/1999/xlink" width="130.5pt" height="130.499995pt" viewBox="0 0 130.5 130.499995" version="1.2">
<g id="surface1">
<path style=" stroke:none;fill-rule:nonzero;fill:rgb(32.159424%,44.309998%,100%);fill-opacity:1;" d="M 65.433594 127.308594 C 31.417969 127.308594 3.652344 99.542969 3.652344 65.433594 C 3.652344 31.417969 31.417969 3.652344 65.433594 3.652344 C 99.542969 3.652344 127.214844 31.417969 127.214844 65.433594 C 127.308594 99.542969 99.542969 127.308594 65.433594 127.308594 Z M 65.433594 37.667969 C 50.171875 37.667969 37.667969 50.171875 37.667969 65.433594 C 37.667969 80.695312 50.171875 93.199219 65.433594 93.199219 C 80.695312 93.199219 93.199219 80.695312 93.199219 65.433594 C 93.199219 50.171875 80.785156 37.667969 65.433594 37.667969 Z M 65.433594 37.667969 "/>
<path style=" stroke:none;fill-rule:nonzero;fill:rgb(100%,100%,100%);fill-opacity:1;" d="M 65.25 6.523438 C 63.328125 6.523438 61.40625 6.621094 59.492188 6.808594 C 57.578125 6.996094 55.679688 7.277344 53.792969 7.652344 C 51.90625 8.027344 50.042969 8.496094 48.203125 9.054688 C 46.363281 9.613281 44.554688 10.257812 42.777344 10.996094 C 41 11.730469 39.261719 12.550781 37.566406 13.460938 C 35.871094 14.367188 34.222656 15.351562 32.625 16.421875 C 31.023438 17.492188 29.480469 18.636719 27.996094 19.855469 C 26.507812 21.074219 25.085938 22.363281 23.726562 23.726562 C 22.363281 25.085938 21.074219 26.507812 19.855469 27.996094 C 18.636719 29.480469 17.492188 31.023438 16.421875 32.625 C 15.351562 34.222656 14.367188 35.871094 13.460938 37.566406 C 12.550781 39.261719 11.730469 41 10.996094 42.777344 C 10.257812 44.554688 9.613281 46.363281 9.054688 48.203125 C 8.496094 50.042969 8.027344 51.90625 7.652344 53.792969 C 7.277344 55.679688 6.996094 57.578125 6.808594 59.492188 C 6.621094 61.40625 6.523438 63.328125 6.523438 65.25 C 6.523438 67.171875 6.621094 69.09375 6.808594 71.007812 C 6.996094 72.921875 7.277344 74.820312 7.652344 76.707031 C 8.027344 78.59375 8.496094 80.457031 9.054688 82.296875 C 9.613281 84.136719 10.257812 85.945312 10.996094 87.722656 C 11.730469 89.5 12.550781 91.238281 13.460938 92.933594 C 14.367188 94.628906 15.351562 96.277344 16.421875 97.875 C 17.492188 99.476562 18.636719 101.019531 19.855469 102.503906 C 21.074219 103.992188 22.363281 105.414062 23.726562 106.773438 C 25.085938 108.136719 26.507812 109.425781 27.996094 110.644531 C 29.480469 111.863281 31.023438 113.007812 32.625 114.078125 C 34.222656 115.148438 35.871094 116.132812 37.566406 117.039062 C 39.261719 117.949219 41 118.769531 42.777344 119.503906 C 44.554688 120.242188 46.363281 120.886719 48.203125 121.445312 C 50.042969 122.003906 51.90625 122.472656 53.792969 122.847656 C 55.679688 123.222656 57.578125 123.503906 59.492188 123.691406 C 61.40625 123.878906 63.328125 123.976562 65.25 123.976562 C 67.171875 123.976562 69.09375 123.878906 71.007812 123.691406 C 72.921875 123.503906 74.820312 123.222656 76.707031 122.847656 C 78.59375 122.472656 80.457031 122.003906 82.296875 121.445312 C 84.136719 120.886719 85.945312 120.242188 87.722656 119.503906 C 89.5 118.769531 91.238281 117.949219 92.933594 117.039062 C 94.628906 116.132812 96.277344 115.148438 97.875 114.078125 C 99.476562 113.007812 101.019531 111.863281 102.503906 110.644531 C 103.992188 109.425781 105.414062 108.136719 106.773438 106.773438 C 108.136719 105.414062 109.425781 103.992188 110.644531 102.503906 C 111.863281 101.019531 113.007812 99.476562 114.078125 97.875 C 115.148438 96.277344 116.132812 94.628906 117.039062 92.933594 C 117.949219 91.238281 118.769531 89.5 119.503906 87.722656 C 120.242188 85.945312 120.886719 84.136719 121.445312 82.296875 C 122.003906 80.457031 122.472656 78.59375 122.847656 76.707031 C 123.222656 74.820312 123.503906 72.921875 123.691406 71.007812 C 123.878906 69.09375 123.976562 67.171875 123.976562 65.25 C 123.976562 63.328125 123.878906 61.40625 123.691406 59.492188 C 123.503906 57.578125 123.222656 55.679688 122.847656 53.792969 C 122.472656 51.90625 122.003906 50.042969 121.445312 48.203125 C 120.886719 46.363281 120.242188 44.554688 119.503906 42.777344 C 118.769531 41 117.949219 39.261719 117.039062 37.566406 C 116.132812 35.871094 115.148438 34.222656 114.078125 32.625 C 113.007812 31.023438 111.863281 29.480469 110.644531 27.996094 C 109.425781 26.507812 108.136719 25.085938 106.773438 23.726562 C 105.414062 22.363281 103.992188 21.074219 102.503906 19.855469 C 101.019531 18.636719 99.476562 17.492188 97.875 16.421875 C 96.277344 15.351562 94.628906 14.367188 92.933594 13.460938 C 91.238281 12.550781 89.5 11.730469 87.722656 10.996094 C 85.945312 10.257812 84.136719 9.613281 82.296875 9.054688 C 80.457031 8.496094 78.59375 8.027344 76.707031 7.652344 C 74.820312 7.277344 72.921875 6.996094 71.007812 6.808594 C 69.09375 6.621094 67.171875 6.523438 65.25 6.523438 Z M 65.25 6.523438 "/>
<path style=" stroke:none;fill-rule:nonzero;fill:rgb(32.159424%,44.309998%,100%);fill-opacity:1;" d="M 76.140625 11.136719 L 49.714844 14.660156 C 49.328125 14.722656 48.941406 15.042969 48.941406 15.425781 L 40.433594 71.722656 C 40.367188 72.363281 40.882812 72.875 41.527344 72.8125 L 57.515625 70.121094 C 58.160156 69.992188 58.738281 70.632812 58.609375 71.273438 L 46.363281 116.296875 C 46.234375 116.875 46.621094 117.449219 47.265625 117.449219 C 47.585938 117.449219 47.910156 117.257812 48.101562 117 L 90.257812 43.734375 C 90.644531 43.03125 90.066406 42.199219 89.292969 42.328125 L 67.375 46.617188 C 66.667969 46.746094 66.085938 46.105469 66.28125 45.398438 L 77.171875 12.355469 C 77.367188 11.714844 76.851562 11.074219 76.140625 11.136719 Z M 76.140625 11.136719 "/>
</g>
</svg>
